<?xml version="1.0" encoding="UTF-8"?>
<svg width="24px" height="24px" viewBox="0 0 24 24" version="1.1" xmlns="http://www.w3.org/2000/svg" xmlns:xlink="http://www.w3.org/1999/xlink">
    <!-- Generator: Sketch 63.1 (92452) - https://sketch.com -->
    <title>Export White</title>
    <desc>Created with Sketch.</desc>
    <g id="Export-White" stroke="none" stroke-width="1" fill="none" fill-rule="evenodd">
        <rect id="Rectangle" fill="#FFFFFF" opacity="0" x="0" y="0" width="24" height="24"></rect>
        <g id="Group-4" transform="translate(2.000000, 0.000000)" fill="#FFFFFF">
            <g id="Group-5">
                <polygon id="Fill-1" points="-9.23705556e-14 0 -9.23705556e-14 24 2.4 24 19.2 24 19.2 18 16.8 18 16.8 21.6 2.4 21.6 2.4 2.4 16.8 2.4 16.8 6 19.2 6 19.2 0"></polygon>
                <path d="M12.6,14.99976 L13.113,15.51276 L14.4,16.79976 L15.5694,15.63036 L19.2,11.99976 L14.4,7.19976 L12.6,8.99976 L14.4,10.79976 L10.2,10.79976 C7.2174,10.79976 4.8,13.21716 4.8,16.19976 L4.8,16.79976 L7.2,16.79976 L7.2,16.19976 C7.2,14.54556 8.5458,13.19976 10.2,13.19976 L14.4,13.19976 L12.6,14.99976 Z" id="Fill-2"></path>
            </g>
        </g>
    </g>
</svg>