<?xml version="1.0" encoding="UTF-8"?>
<svg width="24px" height="24px" viewBox="0 0 24 24" version="1.1" xmlns="http://www.w3.org/2000/svg" xmlns:xlink="http://www.w3.org/1999/xlink">
    <!-- Generator: Sketch 63.1 (92452) - https://sketch.com -->
    <title>Search White</title>
    <desc>Created with Sketch.</desc>
    <g id="Search-White" stroke="none" stroke-width="1" fill="none" fill-rule="evenodd">
        <rect id="Rectangle" fill="#FFFFFF" opacity="0" x="0" y="0" width="24" height="24"></rect>
        <path d="M5.68421053,9.47368421 C5.68421053,7.38442105 7.38442105,5.68421053 9.47368421,5.68421053 C11.5587368,5.68421053 13.2547368,7.38442105 13.2547368,9.47368421 C13.2547368,11.5629474 11.5587368,13.2631579 9.47368421,13.2631579 C7.38442105,13.2631579 5.68421053,11.5629474 5.68421053,9.47368421 L5.68421053,9.47368421 Z M20,18.8092632 L13.8863158,12.6955789 C14.5448421,11.7911579 14.9389474,10.6795789 14.9389474,9.47368421 C14.9389474,6.45052632 12.4968421,4 9.47368421,4 C6.45052632,4 4,6.45052632 4,9.47368421 C4,12.4968421 6.45052632,14.9473684 9.47368421,14.9473684 C10.6821053,14.9473684 11.7936842,14.5507368 12.6972632,13.888 L18.8092632,20 L20,18.8092632 Z" id="Fill-1" fill="#FFFFFF"></path>
    </g>
</svg>