<?xml version="1.0" encoding="UTF-8"?>
<svg width="24px" height="24px" viewBox="0 0 24 24" version="1.1" xmlns="http://www.w3.org/2000/svg" xmlns:xlink="http://www.w3.org/1999/xlink">
    <!-- Generator: Sketch 63.1 (92452) - https://sketch.com -->
    <title>User Blue</title>
    <desc>Created with Sketch.</desc>
    <g id="User-Blue" stroke="none" stroke-width="1" fill="none" fill-rule="evenodd">
        <rect id="Rectangle" fill="#FFFFFF" opacity="0" x="0" y="0" width="24" height="24"></rect>
        <path d="M11.7777778,3.44444444 C13.7993333,3.44444444 15.4444444,5.08955556 15.4444444,7.11111111 C15.4444444,8.15733333 15.002,9.10088889 14.2967778,9.76944444 C13.638,10.3927778 12.7531111,10.7777778 11.7777778,10.7777778 C10.8024444,10.7777778 9.91755556,10.3927778 9.25877778,9.76944444 C8.55355556,9.10088889 8.11111111,8.15733333 8.11111111,7.11111111 C8.11111111,5.08955556 9.75622222,3.44444444 11.7777778,3.44444444 L11.7777778,3.44444444 Z M4.44444444,23 L4.44444444,18.7735556 C4.44444444,15.8878889 6.26311111,13.4238889 8.81144444,12.4497778 C9.69144444,12.9411111 10.701,13.2222222 11.7777778,13.2222222 C12.8545556,13.2222222 13.8641111,12.9411111 14.7441111,12.4497778 C17.2936667,13.4226667 19.1111111,15.8878889 19.1111111,18.7735556 L19.1111111,23 L21.5555556,23 L21.5555556,18.7735556 C21.5555556,15.2755556 19.6061111,12.2322222 16.7351111,10.6702222 C17.4574444,9.66677778 17.8888889,8.43966667 17.8888889,7.11111111 C17.8888889,3.74144444 15.1474444,1 11.7777778,1 C8.40811111,1 5.67888889,3.74144444 5.67888889,7.11111111 C5.67888889,8.43966667 6.09811111,9.66677778 6.82044444,10.6702222 C3.94944444,12.2322222 2,15.2755556 2,18.7735556 L2,23 L4.44444444,23 Z" id="Fill-1" fill="#8BC9F2"></path>
    </g>
</svg>