<?xml version="1.0" encoding="UTF-8"?>
<svg width="24px" height="24px" viewBox="0 0 24 24" version="1.1" xmlns="http://www.w3.org/2000/svg" xmlns:xlink="http://www.w3.org/1999/xlink">
    <!-- Generator: Sketch 63.1 (92452) - https://sketch.com -->
    <title>Home White Copy 8</title>
    <desc>Created with Sketch.</desc>
    <g id="Home-White-Copy-8" stroke="none" stroke-width="1" fill="none" fill-rule="evenodd">
        <rect id="Rectangle" fill="#FFFFFF" opacity="0" x="0" y="0" width="24" height="24"></rect>
        <path d="M19.685,10.069 C19.33,10.627 18.709,11 18,11 C17.291,11 16.671,10.627 16.316,10.069 C16.119,9.758 16,9.393 16,9 C16,7.897 16.898,7 18,7 C19.103,7 20,7.897 20,9 C20,9.393 19.882,9.758 19.685,10.069 M11.061,10.174 C10.523,10.684 9.798,11 9,11 C8.203,11 7.478,10.684 6.94,10.174 C6.363,9.628 6,8.856 6,8 C6,6.345 7.346,5 9,5 C10.655,5 12,6.345 12,8 C12,8.856 11.638,9.628 11.061,10.174 M20.656,10.368 C20.869,9.956 21,9.495 21,9 C21,7.342 19.658,6 18,6 C16.343,6 15,7.342 15,9 C15,9.495 15.132,9.956 15.345,10.368 C14.78,10.626 14.295,11.018 13.91,11.494 C13.759,11.383 13.616,11.265 13.457,11.166 C13.324,11.082 13.196,10.988 13.056,10.912 C13.648,10.09 14,9.087 14,8 C14,5.243 11.757,3 9,3 C6.244,3 4.01,5.243 4.01,8 C4.01,9.087 4.353,10.09 4.945,10.912 C2.595,12.19 1,14.679 1,17.542 L1,21 L3,21 L3,17.542 C3,15.18 4.489,13.164 6.574,12.368 C7.293,12.769 8.12,13 9,13 C9.881,13 10.707,12.769 11.427,12.368 C12.006,12.589 12.533,12.912 13,13.302 C13.377,13.617 13.718,13.973 14,14.376 C14.63,15.273 15,16.364 15,17.542 L15,21 L17,21 L17,17.542 C17,15.412 16.102,13.505 14.68,12.134 C15.017,11.717 15.455,11.383 15.967,11.194 C16.502,11.69 17.213,12 18,12 C18.788,12 19.498,11.69 20.034,11.194 C21.178,11.617 22,12.71 22,14 L22,16 L23,16 L23,14 C23,12.382 22.037,10.998 20.656,10.368" id="Fill-1" fill="#FFFFFF"></path>
    </g>
</svg>