<?xml version="1.0" encoding="UTF-8"?>
<svg width="24px" height="24px" viewBox="0 0 24 24" version="1.1" xmlns="http://www.w3.org/2000/svg" xmlns:xlink="http://www.w3.org/1999/xlink">
    <!-- Generator: Sketch 63.1 (92452) - https://sketch.com -->
    <title>User White</title>
    <desc>Created with Sketch.</desc>
    <g id="User-White" stroke="none" stroke-width="1" fill="none" fill-rule="evenodd">
        <rect id="Rectangle" fill="#FFFFFF" opacity="0" x="0" y="0" width="24" height="24"></rect>
        <path d="M12.5,4 C14.4296667,4 16,5.57033333 16,7.5 C16,8.49866667 15.5776667,9.39933333 14.9045,10.0375 C14.2756667,10.6325 13.431,11 12.5,11 C11.569,11 10.7243333,10.6325 10.0955,10.0375 C9.42233333,9.39933333 9,8.49866667 9,7.5 C9,5.57033333 10.5703333,4 12.5,4 L12.5,4 Z M6.125,21 L6.125,17.3498889 C6.125,14.8577222 7.706,12.7297222 9.9213125,11.8884444 C10.6863125,12.3127778 11.5639375,12.5555556 12.5,12.5555556 C13.4360625,12.5555556 14.3136875,12.3127778 15.0786875,11.8884444 C17.2950625,12.7286667 18.875,14.8577222 18.875,17.3498889 L18.875,21 L21,21 L21,17.3498889 C21,14.3288889 19.3053125,11.7005556 16.8095,10.3515556 C17.4374375,9.48494444 17.8125,8.42516667 17.8125,7.27777778 C17.8125,4.36761111 15.4293125,2 12.5,2 C9.5706875,2 7.198125,4.36761111 7.198125,7.27777778 C7.198125,8.42516667 7.5625625,9.48494444 8.1905,10.3515556 C5.6946875,11.7005556 4,14.3288889 4,17.3498889 L4,21 L6.125,21 Z" id="Fill-1" fill="#FFFFFF"></path>
    </g>
</svg>